<svg width="14" height="20" viewBox="0 0 14 20" fill="none" xmlns="http://www.w3.org/2000/svg">
<path d="M5.22004 5.22163C5.14778 5.15141 5.06181 5.09566 4.96709 5.05762C4.87237 5.01958 4.77078 5 4.66817 5C4.56556 5 4.46396 5.01958 4.36925 5.05762C4.27453 5.09566 4.18856 5.15141 4.1163 5.22163L0.229917 8.96801C0.157064 9.03767 0.0992393 9.12054 0.059778 9.21185C0.0203167 9.30315 0 9.40109 0 9.5C0 9.59891 0.0203167 9.69685 0.059778 9.78815C0.0992393 9.87946 0.157064 9.96233 0.229917 10.032L4.1163 13.7784C4.18856 13.8486 4.27453 13.9043 4.36925 13.9424C4.46396 13.9804 4.56556 14 4.66817 14C4.77078 14 4.87237 13.9804 4.96709 13.9424C5.06181 13.9043 5.14778 13.8486 5.22004 13.7784C5.29289 13.7087 5.35071 13.6258 5.39017 13.5345C5.42964 13.4432 5.44995 13.3453 5.44995 13.2464C5.44995 13.1475 5.42964 13.0495 5.39017 12.9582C5.35071 12.8669 5.29289 12.784 5.22004 12.7144L1.87774 9.5L5.22004 6.28561C5.29289 6.21595 5.35071 6.13308 5.39017 6.04177C5.42964 5.95047 5.44995 5.85253 5.44995 5.75362C5.44995 5.65471 5.42964 5.55677 5.39017 5.46547C5.35071 5.37416 5.29289 5.29129 5.22004 5.22163ZM13.7701 8.96801L9.8837 5.22163C9.81123 5.15177 9.72519 5.09636 9.6305 5.05855C9.53581 5.02074 9.43432 5.00128 9.33183 5.00128C9.12484 5.00128 8.92633 5.08054 8.77996 5.22163C8.70749 5.2915 8.65 5.37443 8.61078 5.46571C8.57156 5.55699 8.55137 5.65482 8.55137 5.75362C8.55137 5.95315 8.6336 6.14451 8.77996 6.28561L12.1223 9.5L8.77996 12.7144C8.70711 12.784 8.64929 12.8669 8.60983 12.9582C8.57036 13.0495 8.55005 13.1475 8.55005 13.2464C8.55005 13.3453 8.57036 13.4432 8.60983 13.5345C8.64929 13.6258 8.70711 13.7087 8.77996 13.7784C8.85222 13.8486 8.93819 13.9043 9.03291 13.9424C9.12763 13.9804 9.22922 14 9.33183 14C9.43444 14 9.53604 13.9804 9.63075 13.9424C9.72547 13.9043 9.81144 13.8486 9.8837 13.7784L13.7701 10.032C13.8429 9.96233 13.9008 9.87946 13.9402 9.78815C13.9797 9.69685 14 9.59891 14 9.5C14 9.40109 13.9797 9.30315 13.9402 9.21185C13.9008 9.12054 13.8429 9.03767 13.7701 8.96801Z"/>
</svg>
