<svg width="20" height="20" viewBox="0 0 20 20" fill="none" xmlns="http://www.w3.org/2000/svg">
<path d="M10.0833 6.66667C9.64131 6.66667 9.21738 6.84226 8.90482 7.15482C8.59226 7.46738 8.41667 7.89131 8.41667 8.33333V18.3333C8.41667 18.7754 8.59226 19.1993 8.90482 19.5118C9.21738 19.8244 9.64131 20 10.0833 20C10.5254 20 10.9493 19.8244 11.2618 19.5118C11.5744 19.1993 11.75 18.7754 11.75 18.3333V8.33333C11.75 7.89131 11.5744 7.46738 11.2618 7.15482C10.9493 6.84226 10.5254 6.66667 10.0833 6.66667ZM10.0833 0C9.67129 0 9.2685 0.122185 8.9259 0.351105C8.58329 0.580024 8.31627 0.905396 8.15859 1.28608C8.0009 1.66676 7.95965 2.08564 8.04003 2.48977C8.12042 2.8939 8.31884 3.26511 8.6102 3.55647C8.90155 3.84783 9.27277 4.04625 9.6769 4.12664C10.081 4.20702 10.4999 4.16576 10.8806 4.00808C11.2613 3.8504 11.5866 3.58337 11.8156 3.24077C12.0445 2.89817 12.1667 2.49538 12.1667 2.08333C12.1667 1.5308 11.9472 1.00089 11.5565 0.610194C11.1658 0.219493 10.6359 0 10.0833 0V0Z"/>
</svg>
