<svg width="294" height="71" viewBox="0 0 294 71" fill="none" xmlns="http://www.w3.org/2000/svg">
<path d="M80.744 36.976H84.728C86.616 36.976 88.12 36.56 89.24 35.728C90.36 34.896 90.92 33.664 90.92 32.032C90.92 30.432 90.36 29.216 89.24 28.384C88.12 27.552 86.472 27.136 84.296 27.136C83.656 27.136 83.032 27.168 82.424 27.232C81.816 27.264 81.256 27.328 80.744 27.424V36.976ZM85.16 41.728H74.696V25.264C74.696 24.688 74.856 24.24 75.176 23.92C75.528 23.6 75.976 23.344 76.52 23.152C77.544 22.832 78.744 22.592 80.12 22.432C81.528 22.272 82.952 22.192 84.392 22.192C88.616 22.192 91.768 23.072 93.848 24.832C95.96 26.56 97.016 28.944 97.016 31.984C97.016 33.904 96.52 35.6 95.528 37.072C94.568 38.544 93.208 39.696 91.448 40.528C89.688 41.328 87.592 41.728 85.16 41.728ZM84.344 40.192L89.528 38.704C90.328 39.76 91.144 40.832 91.976 41.92C92.84 42.976 93.656 44.016 94.424 45.04C95.224 46.032 95.928 46.944 96.536 47.776C97.176 48.608 97.672 49.296 98.024 49.84C97.8 50.64 97.368 51.264 96.728 51.712C96.12 52.16 95.448 52.384 94.712 52.384C93.752 52.384 93 52.176 92.456 51.76C91.944 51.312 91.448 50.72 90.968 49.984L84.344 40.192ZM74.696 39.616H80.792V51.904C80.536 52 80.136 52.08 79.592 52.144C79.08 52.24 78.536 52.288 77.96 52.288C76.808 52.288 75.976 52.08 75.464 51.664C74.952 51.216 74.696 50.48 74.696 49.456V39.616ZM102.436 43.648L102.196 39.52L115.06 37.6C114.964 36.384 114.5 35.328 113.668 34.432C112.836 33.536 111.62 33.088 110.02 33.088C108.388 33.088 107.028 33.664 105.94 34.816C104.852 35.936 104.292 37.552 104.26 39.664L104.404 42.16C104.692 44.208 105.476 45.712 106.756 46.672C108.068 47.632 109.716 48.112 111.7 48.112C113.044 48.112 114.292 47.92 115.444 47.536C116.596 47.12 117.508 46.672 118.18 46.192C118.628 46.48 118.98 46.848 119.236 47.296C119.524 47.712 119.668 48.176 119.668 48.688C119.668 49.52 119.3 50.24 118.564 50.848C117.828 51.424 116.836 51.872 115.588 52.192C114.34 52.512 112.916 52.672 111.316 52.672C108.852 52.672 106.66 52.224 104.74 51.328C102.852 50.4 101.364 49.024 100.276 47.2C99.2199 45.376 98.6919 43.104 98.6919 40.384C98.6919 38.432 98.9959 36.72 99.6039 35.248C100.212 33.776 101.028 32.56 102.052 31.6C103.108 30.608 104.324 29.872 105.7 29.392C107.076 28.88 108.516 28.624 110.02 28.624C112.132 28.624 113.972 29.056 115.54 29.92C117.14 30.752 118.388 31.92 119.284 33.424C120.212 34.928 120.676 36.656 120.676 38.608C120.676 39.504 120.436 40.176 119.956 40.624C119.508 41.04 118.868 41.296 118.036 41.392L102.436 43.648ZM142.862 36.304V41.776H136.958V36.976C136.958 35.728 136.574 34.816 135.806 34.24C135.07 33.632 134.126 33.328 132.974 33.328C132.142 33.328 131.374 33.456 130.67 33.712C129.998 33.936 129.422 34.208 128.942 34.528V41.776H123.038V34.144C123.038 33.376 123.198 32.752 123.518 32.272C123.838 31.76 124.318 31.296 124.958 30.88C125.95 30.208 127.166 29.664 128.606 29.248C130.078 28.832 131.598 28.624 133.166 28.624C134.734 28.624 136.174 28.864 137.486 29.344C138.798 29.824 139.87 30.528 140.702 31.456C140.926 31.648 141.134 31.84 141.326 32.032C141.518 32.224 141.678 32.448 141.806 32.704C142.094 33.184 142.334 33.744 142.526 34.384C142.75 34.992 142.862 35.632 142.862 36.304ZM156.734 36.784V41.776H150.83V36.976C150.83 35.728 150.478 34.816 149.774 34.24C149.07 33.632 148.126 33.328 146.942 33.328C146.078 33.328 145.23 33.504 144.398 33.856C143.598 34.208 142.91 34.672 142.334 35.248L139.358 31.648C140.35 30.816 141.518 30.112 142.862 29.536C144.206 28.928 145.806 28.624 147.662 28.624C149.358 28.624 150.894 28.896 152.27 29.44C153.646 29.984 154.734 30.864 155.534 32.08C156.334 33.296 156.734 34.864 156.734 36.784ZM123.038 39.472H128.942V51.904C128.686 52 128.318 52.08 127.838 52.144C127.358 52.24 126.83 52.288 126.254 52.288C125.166 52.288 124.35 52.096 123.806 51.712C123.294 51.296 123.038 50.576 123.038 49.552V39.472ZM136.958 39.472H142.862V51.904C142.606 52 142.222 52.08 141.71 52.144C141.23 52.24 140.718 52.288 140.174 52.288C139.054 52.288 138.238 52.096 137.726 51.712C137.214 51.296 136.958 50.576 136.958 49.552V39.472ZM150.83 39.472H156.734V51.904C156.51 52 156.142 52.08 155.63 52.144C155.15 52.24 154.638 52.288 154.094 52.288C152.974 52.288 152.142 52.096 151.598 51.712C151.086 51.296 150.83 50.576 150.83 49.552V39.472ZM182.8 40.624C182.8 43.088 182.32 45.232 181.36 47.056C180.4 48.848 179.04 50.24 177.28 51.232C175.552 52.192 173.504 52.672 171.136 52.672C168.768 52.672 166.704 52.192 164.944 51.232C163.184 50.24 161.808 48.848 160.816 47.056C159.856 45.264 159.376 43.12 159.376 40.624C159.376 38.16 159.872 36.032 160.864 34.24C161.856 32.448 163.232 31.072 164.992 30.112C166.752 29.12 168.8 28.624 171.136 28.624C173.472 28.624 175.504 29.12 177.232 30.112C178.992 31.072 180.352 32.464 181.312 34.288C182.304 36.08 182.8 38.192 182.8 40.624ZM171.136 33.328C169.376 33.328 167.984 33.968 166.96 35.248C165.968 36.528 165.472 38.32 165.472 40.624C165.472 42.992 165.968 44.816 166.96 46.096C167.952 47.344 169.344 47.968 171.136 47.968C172.896 47.968 174.272 47.328 175.264 46.048C176.256 44.768 176.752 42.96 176.752 40.624C176.752 38.352 176.256 36.576 175.264 35.296C174.272 33.984 172.896 33.328 171.136 33.328ZM185.504 39.328H191.408V44.992C191.408 46.048 191.712 46.8 192.32 47.248C192.96 47.696 193.856 47.92 195.008 47.92C195.52 47.92 196.064 47.856 196.64 47.728C197.248 47.6 197.76 47.44 198.176 47.248C198.4 47.504 198.608 47.808 198.8 48.16C198.992 48.512 199.088 48.944 199.088 49.456C199.088 50.384 198.64 51.152 197.744 51.76C196.88 52.368 195.52 52.672 193.664 52.672C191.136 52.672 189.136 52.112 187.664 50.992C186.224 49.84 185.504 47.984 185.504 45.424V39.328ZM189.104 34.432V29.776H198.512C198.64 30 198.768 30.32 198.896 30.736C199.056 31.152 199.136 31.584 199.136 32.032C199.136 32.832 198.944 33.44 198.56 33.856C198.176 34.24 197.68 34.432 197.072 34.432H189.104ZM191.408 40.624H185.504V23.344C185.76 23.248 186.128 23.152 186.608 23.056C187.12 22.96 187.648 22.912 188.192 22.912C189.312 22.912 190.128 23.12 190.64 23.536C191.152 23.92 191.408 24.624 191.408 25.648V40.624ZM203.602 43.648L203.362 39.52L216.226 37.6C216.13 36.384 215.666 35.328 214.834 34.432C214.002 33.536 212.786 33.088 211.186 33.088C209.554 33.088 208.194 33.664 207.106 34.816C206.018 35.936 205.458 37.552 205.426 39.664L205.57 42.16C205.858 44.208 206.642 45.712 207.922 46.672C209.234 47.632 210.882 48.112 212.866 48.112C214.21 48.112 215.458 47.92 216.61 47.536C217.762 47.12 218.674 46.672 219.346 46.192C219.794 46.48 220.146 46.848 220.402 47.296C220.69 47.712 220.834 48.176 220.834 48.688C220.834 49.52 220.466 50.24 219.73 50.848C218.994 51.424 218.002 51.872 216.754 52.192C215.506 52.512 214.082 52.672 212.482 52.672C210.018 52.672 207.826 52.224 205.906 51.328C204.018 50.4 202.53 49.024 201.442 47.2C200.386 45.376 199.858 43.104 199.858 40.384C199.858 38.432 200.162 36.72 200.77 35.248C201.378 33.776 202.194 32.56 203.218 31.6C204.274 30.608 205.49 29.872 206.866 29.392C208.242 28.88 209.682 28.624 211.186 28.624C213.298 28.624 215.138 29.056 216.706 29.92C218.306 30.752 219.554 31.92 220.45 33.424C221.378 34.928 221.842 36.656 221.842 38.608C221.842 39.504 221.602 40.176 221.122 40.624C220.674 41.04 220.034 41.296 219.202 41.392L203.602 43.648ZM224.827 32.8H230.923V51.904C230.667 52 230.267 52.08 229.723 52.144C229.211 52.24 228.667 52.288 228.091 52.288C226.939 52.288 226.107 52.08 225.595 51.664C225.083 51.216 224.827 50.48 224.827 49.456V32.8ZM230.923 39.76H224.827V22.864C225.115 22.8 225.515 22.72 226.027 22.624C226.571 22.528 227.115 22.48 227.659 22.48C228.811 22.48 229.643 22.688 230.155 23.104C230.667 23.488 230.923 24.224 230.923 25.312V39.76ZM243.163 32.8H249.211V51.904C248.955 52 248.555 52.08 248.011 52.144C247.499 52.24 246.971 52.288 246.427 52.288C245.243 52.288 244.395 52.08 243.883 51.664C243.403 51.216 243.163 50.48 243.163 49.456V32.8ZM249.211 39.76H243.163V22.864C243.419 22.8 243.803 22.72 244.315 22.624C244.859 22.528 245.403 22.48 245.947 22.48C247.099 22.48 247.931 22.688 248.443 23.104C248.955 23.52 249.211 24.272 249.211 25.36V39.76ZM246.523 39.76H227.803V34.912H246.523V39.76ZM253.631 43.312V39.52H259.535V43.216C259.535 44.912 259.967 46.128 260.831 46.864C261.727 47.6 262.959 47.968 264.527 47.968C265.551 47.968 266.415 47.872 267.119 47.68C267.823 47.488 268.351 47.28 268.703 47.056V39.52H274.607V47.536C274.607 48.272 274.479 48.896 274.223 49.408C273.999 49.888 273.551 50.336 272.879 50.752C271.951 51.296 270.767 51.744 269.327 52.096C267.919 52.48 266.303 52.672 264.479 52.672C262.271 52.672 260.351 52.352 258.719 51.712C257.087 51.072 255.823 50.064 254.927 48.688C254.063 47.28 253.631 45.488 253.631 43.312ZM274.607 41.824H268.703V29.344C268.959 29.28 269.327 29.216 269.807 29.152C270.319 29.056 270.847 29.008 271.391 29.008C272.511 29.008 273.327 29.2 273.839 29.584C274.351 29.968 274.607 30.688 274.607 31.744V41.824ZM259.535 41.824H253.631V29.344C253.887 29.28 254.255 29.216 254.735 29.152C255.215 29.056 255.743 29.008 256.319 29.008C257.439 29.008 258.255 29.2 258.767 29.584C259.279 29.968 259.535 30.688 259.535 31.744V41.824ZM278.42 39.328H284.324V44.992C284.324 46.048 284.628 46.8 285.236 47.248C285.876 47.696 286.772 47.92 287.924 47.92C288.436 47.92 288.98 47.856 289.556 47.728C290.164 47.6 290.676 47.44 291.092 47.248C291.316 47.504 291.524 47.808 291.716 48.16C291.908 48.512 292.004 48.944 292.004 49.456C292.004 50.384 291.556 51.152 290.66 51.76C289.796 52.368 288.436 52.672 286.58 52.672C284.052 52.672 282.052 52.112 280.58 50.992C279.14 49.84 278.42 47.984 278.42 45.424V39.328ZM282.02 34.432V29.776H291.428C291.556 30 291.684 30.32 291.812 30.736C291.972 31.152 292.052 31.584 292.052 32.032C292.052 32.832 291.86 33.44 291.476 33.856C291.092 34.24 290.596 34.432 289.988 34.432H282.02ZM284.324 40.624H278.42V23.344C278.676 23.248 279.044 23.152 279.524 23.056C280.036 22.96 280.564 22.912 281.108 22.912C282.228 22.912 283.044 23.12 283.556 23.536C284.068 23.92 284.324 24.624 284.324 25.648V40.624Z" fill="white"/>
<g clip-path="url(#clip0_18_132)">
<path d="M36.5786 17.0385L11.3777 34.9021C10.4042 35.5923 10.4037 37.0403 11.3777 37.7307L36.5786 55.5944C37.722 56.405 39.3146 55.5868 39.3146 54.18V18.4528C39.3146 17.0496 37.7256 16.2252 36.5786 17.0385Z" fill="white"/>
<path d="M0.731087 24.5854C-0.644052 25.5602 0.0508728 27.7333 1.73349 27.7333H7.17941V20.0144L0.731087 24.5854Z" fill="white"/>
<path d="M54.8952 40.165H42.7812V52.6104L55.8976 43.3129C57.2727 42.3383 56.5778 40.165 54.8952 40.165Z" fill="white"/>
<path d="M13.3825 17.0316C12.2354 16.2184 10.6465 17.0428 10.6465 18.4458V31.1636L21.9828 23.1279L13.3825 17.0316Z" fill="white"/>
</g>
<defs>
<clipPath id="clip0_18_132">
<rect width="56.6292" height="56.6292" fill="white" transform="translate(0 8)"/>
</clipPath>
</defs>
</svg>
