<svg width="228" height="57" viewBox="0 0 228 57" fill="none" xmlns="http://www.w3.org/2000/svg">
<path d="M72.105 28.045H75.01C76.3867 28.045 77.4833 27.7417 78.3 27.135C79.1167 26.5283 79.525 25.63 79.525 24.44C79.525 23.2733 79.1167 22.3867 78.3 21.78C77.4833 21.1733 76.2817 20.87 74.695 20.87C74.2283 20.87 73.7733 20.8933 73.33 20.94C72.8867 20.9633 72.4783 21.01 72.105 21.08V28.045ZM75.325 31.51H67.695V19.505C67.695 19.085 67.8117 18.7583 68.045 18.525C68.3017 18.2917 68.6283 18.105 69.025 17.965C69.7717 17.7317 70.6467 17.5567 71.65 17.44C72.6767 17.3233 73.715 17.265 74.765 17.265C77.845 17.265 80.1433 17.9067 81.66 19.19C83.2 20.45 83.97 22.1883 83.97 24.405C83.97 25.805 83.6083 27.0417 82.885 28.115C82.185 29.1883 81.1933 30.0283 79.91 30.635C78.6267 31.2183 77.0983 31.51 75.325 31.51ZM74.73 30.39L78.51 29.305C79.0933 30.075 79.6883 30.8567 80.295 31.65C80.925 32.42 81.52 33.1783 82.08 33.925C82.6633 34.6483 83.1767 35.3133 83.62 35.92C84.0867 36.5267 84.4483 37.0283 84.705 37.425C84.5417 38.0083 84.2267 38.4633 83.76 38.79C83.3167 39.1167 82.8267 39.28 82.29 39.28C81.59 39.28 81.0417 39.1283 80.645 38.825C80.2717 38.4983 79.91 38.0667 79.56 37.53L74.73 30.39ZM67.695 29.97H72.14V38.93C71.9533 39 71.6617 39.0583 71.265 39.105C70.8917 39.175 70.495 39.21 70.075 39.21C69.235 39.21 68.6283 39.0583 68.255 38.755C67.8817 38.4283 67.695 37.8917 67.695 37.145V29.97ZM87.922 32.91L87.747 29.9L97.127 28.5C97.057 27.6133 96.7187 26.8433 96.112 26.19C95.5053 25.5367 94.6187 25.21 93.452 25.21C92.262 25.21 91.2703 25.63 90.477 26.47C89.6837 27.2867 89.2753 28.465 89.252 30.005L89.357 31.825C89.567 33.3183 90.1387 34.415 91.072 35.115C92.0287 35.815 93.2303 36.165 94.677 36.165C95.657 36.165 96.567 36.025 97.407 35.745C98.247 35.4417 98.912 35.115 99.402 34.765C99.7287 34.975 99.9853 35.2433 100.172 35.57C100.382 35.8733 100.487 36.2117 100.487 36.585C100.487 37.1917 100.219 37.7167 99.682 38.16C99.1453 38.58 98.422 38.9067 97.512 39.14C96.602 39.3733 95.5637 39.49 94.397 39.49C92.6003 39.49 91.002 39.1633 89.602 38.51C88.2253 37.8333 87.1403 36.83 86.347 35.5C85.577 34.17 85.192 32.5133 85.192 30.53C85.192 29.1067 85.4137 27.8583 85.857 26.785C86.3003 25.7117 86.8953 24.825 87.642 24.125C88.412 23.4017 89.2987 22.865 90.302 22.515C91.3053 22.1417 92.3553 21.955 93.452 21.955C94.992 21.955 96.3337 22.27 97.477 22.9C98.6437 23.5067 99.5537 24.3583 100.207 25.455C100.884 26.5517 101.222 27.8117 101.222 29.235C101.222 29.8883 101.047 30.3783 100.697 30.705C100.37 31.0083 99.9037 31.195 99.297 31.265L87.922 32.91ZM117.399 27.555V31.545H113.094V28.045C113.094 27.135 112.814 26.47 112.254 26.05C111.717 25.6067 111.029 25.385 110.189 25.385C109.582 25.385 109.022 25.4783 108.509 25.665C108.019 25.8283 107.599 26.0267 107.249 26.26V31.545H102.944V25.98C102.944 25.42 103.061 24.965 103.294 24.615C103.527 24.2417 103.877 23.9033 104.344 23.6C105.067 23.11 105.954 22.7133 107.004 22.41C108.077 22.1067 109.186 21.955 110.329 21.955C111.472 21.955 112.522 22.13 113.479 22.48C114.436 22.83 115.217 23.3433 115.824 24.02C115.987 24.16 116.139 24.3 116.279 24.44C116.419 24.58 116.536 24.7433 116.629 24.93C116.839 25.28 117.014 25.6883 117.154 26.155C117.317 26.5983 117.399 27.065 117.399 27.555ZM127.514 27.905V31.545H123.209V28.045C123.209 27.135 122.952 26.47 122.439 26.05C121.926 25.6067 121.237 25.385 120.374 25.385C119.744 25.385 119.126 25.5133 118.519 25.77C117.936 26.0267 117.434 26.365 117.014 26.785L114.844 24.16C115.567 23.5533 116.419 23.04 117.399 22.62C118.379 22.1767 119.546 21.955 120.899 21.955C122.136 21.955 123.256 22.1533 124.259 22.55C125.262 22.9467 126.056 23.5883 126.639 24.475C127.222 25.3617 127.514 26.505 127.514 27.905ZM102.944 29.865H107.249V38.93C107.062 39 106.794 39.0583 106.444 39.105C106.094 39.175 105.709 39.21 105.289 39.21C104.496 39.21 103.901 39.07 103.504 38.79C103.131 38.4867 102.944 37.9617 102.944 37.215V29.865ZM113.094 29.865H117.399V38.93C117.212 39 116.932 39.0583 116.559 39.105C116.209 39.175 115.836 39.21 115.439 39.21C114.622 39.21 114.027 39.07 113.654 38.79C113.281 38.4867 113.094 37.9617 113.094 37.215V29.865ZM123.209 29.865H127.514V38.93C127.351 39 127.082 39.0583 126.709 39.105C126.359 39.175 125.986 39.21 125.589 39.21C124.772 39.21 124.166 39.07 123.769 38.79C123.396 38.4867 123.209 37.9617 123.209 37.215V29.865ZM146.521 30.705C146.521 32.5017 146.171 34.065 145.471 35.395C144.771 36.7017 143.779 37.7167 142.496 38.44C141.236 39.14 139.743 39.49 138.016 39.49C136.289 39.49 134.784 39.14 133.501 38.44C132.218 37.7167 131.214 36.7017 130.491 35.395C129.791 34.0883 129.441 32.525 129.441 30.705C129.441 28.9083 129.803 27.3567 130.526 26.05C131.249 24.7433 132.253 23.74 133.536 23.04C134.819 22.3167 136.313 21.955 138.016 21.955C139.719 21.955 141.201 22.3167 142.461 23.04C143.744 23.74 144.736 24.755 145.436 26.085C146.159 27.3917 146.521 28.9317 146.521 30.705ZM138.016 25.385C136.733 25.385 135.718 25.8517 134.971 26.785C134.248 27.7183 133.886 29.025 133.886 30.705C133.886 32.4317 134.248 33.7617 134.971 34.695C135.694 35.605 136.709 36.06 138.016 36.06C139.299 36.06 140.303 35.5933 141.026 34.66C141.749 33.7267 142.111 32.4083 142.111 30.705C142.111 29.0483 141.749 27.7533 141.026 26.82C140.303 25.8633 139.299 25.385 138.016 25.385ZM148.493 29.76H152.798V33.89C152.798 34.66 153.019 35.2083 153.463 35.535C153.929 35.8617 154.583 36.025 155.423 36.025C155.796 36.025 156.193 35.9783 156.613 35.885C157.056 35.7917 157.429 35.675 157.733 35.535C157.896 35.7217 158.048 35.9433 158.188 36.2C158.328 36.4567 158.398 36.7717 158.398 37.145C158.398 37.8217 158.071 38.3817 157.418 38.825C156.788 39.2683 155.796 39.49 154.443 39.49C152.599 39.49 151.141 39.0817 150.068 38.265C149.018 37.425 148.493 36.0717 148.493 34.205V29.76ZM151.118 26.19V22.795H157.978C158.071 22.9583 158.164 23.1917 158.258 23.495C158.374 23.7983 158.433 24.1133 158.433 24.44C158.433 25.0233 158.293 25.4667 158.013 25.77C157.733 26.05 157.371 26.19 156.928 26.19H151.118ZM152.798 30.705H148.493V18.105C148.679 18.035 148.948 17.965 149.298 17.895C149.671 17.825 150.056 17.79 150.453 17.79C151.269 17.79 151.864 17.9417 152.238 18.245C152.611 18.525 152.798 19.0383 152.798 19.785V30.705ZM161.689 32.91L161.514 29.9L170.894 28.5C170.824 27.6133 170.485 26.8433 169.879 26.19C169.272 25.5367 168.385 25.21 167.219 25.21C166.029 25.21 165.037 25.63 164.244 26.47C163.45 27.2867 163.042 28.465 163.019 30.005L163.124 31.825C163.334 33.3183 163.905 34.415 164.839 35.115C165.795 35.815 166.997 36.165 168.444 36.165C169.424 36.165 170.334 36.025 171.174 35.745C172.014 35.4417 172.679 35.115 173.169 34.765C173.495 34.975 173.752 35.2433 173.939 35.57C174.149 35.8733 174.254 36.2117 174.254 36.585C174.254 37.1917 173.985 37.7167 173.449 38.16C172.912 38.58 172.189 38.9067 171.279 39.14C170.369 39.3733 169.33 39.49 168.164 39.49C166.367 39.49 164.769 39.1633 163.369 38.51C161.992 37.8333 160.907 36.83 160.114 35.5C159.344 34.17 158.959 32.5133 158.959 30.53C158.959 29.1067 159.18 27.8583 159.624 26.785C160.067 25.7117 160.662 24.825 161.409 24.125C162.179 23.4017 163.065 22.865 164.069 22.515C165.072 22.1417 166.122 21.955 167.219 21.955C168.759 21.955 170.1 22.27 171.244 22.9C172.41 23.5067 173.32 24.3583 173.974 25.455C174.65 26.5517 174.989 27.8117 174.989 29.235C174.989 29.8883 174.814 30.3783 174.464 30.705C174.137 31.0083 173.67 31.195 173.064 31.265L161.689 32.91ZM177.166 25H181.611V38.93C181.424 39 181.132 39.0583 180.736 39.105C180.362 39.175 179.966 39.21 179.546 39.21C178.706 39.21 178.099 39.0583 177.726 38.755C177.352 38.4283 177.166 37.8917 177.166 37.145V25ZM181.611 30.075H177.166V17.755C177.376 17.7083 177.667 17.65 178.041 17.58C178.437 17.51 178.834 17.475 179.231 17.475C180.071 17.475 180.677 17.6267 181.051 17.93C181.424 18.21 181.611 18.7467 181.611 19.54V30.075ZM190.536 25H194.946V38.93C194.759 39 194.467 39.0583 194.071 39.105C193.697 39.175 193.312 39.21 192.916 39.21C192.052 39.21 191.434 39.0583 191.061 38.755C190.711 38.4283 190.536 37.8917 190.536 37.145V25ZM194.946 30.075H190.536V17.755C190.722 17.7083 191.002 17.65 191.376 17.58C191.772 17.51 192.169 17.475 192.566 17.475C193.406 17.475 194.012 17.6267 194.386 17.93C194.759 18.2333 194.946 18.7817 194.946 19.575V30.075ZM192.986 30.075H179.336V26.54H192.986V30.075ZM198.169 32.665V29.9H202.474V32.595C202.474 33.8317 202.789 34.7183 203.419 35.255C204.072 35.7917 204.97 36.06 206.114 36.06C206.86 36.06 207.49 35.99 208.004 35.85C208.517 35.71 208.902 35.5583 209.159 35.395V29.9H213.464V35.745C213.464 36.2817 213.37 36.7367 213.184 37.11C213.02 37.46 212.694 37.7867 212.204 38.09C211.527 38.4867 210.664 38.8133 209.614 39.07C208.587 39.35 207.409 39.49 206.079 39.49C204.469 39.49 203.069 39.2567 201.879 38.79C200.689 38.3233 199.767 37.5883 199.114 36.585C198.484 35.5583 198.169 34.2517 198.169 32.665ZM213.464 31.58H209.159V22.48C209.345 22.4333 209.614 22.3867 209.964 22.34C210.337 22.27 210.722 22.235 211.119 22.235C211.935 22.235 212.53 22.375 212.904 22.655C213.277 22.935 213.464 23.46 213.464 24.23V31.58ZM202.474 31.58H198.169V22.48C198.355 22.4333 198.624 22.3867 198.974 22.34C199.324 22.27 199.709 22.235 200.129 22.235C200.945 22.235 201.54 22.375 201.914 22.655C202.287 22.935 202.474 23.46 202.474 24.23V31.58ZM216.244 29.76H220.549V33.89C220.549 34.66 220.77 35.2083 221.214 35.535C221.68 35.8617 222.334 36.025 223.174 36.025C223.547 36.025 223.944 35.9783 224.364 35.885C224.807 35.7917 225.18 35.675 225.484 35.535C225.647 35.7217 225.799 35.9433 225.939 36.2C226.079 36.4567 226.149 36.7717 226.149 37.145C226.149 37.8217 225.822 38.3817 225.169 38.825C224.539 39.2683 223.547 39.49 222.194 39.49C220.35 39.49 218.892 39.0817 217.819 38.265C216.769 37.425 216.244 36.0717 216.244 34.205V29.76ZM218.869 26.19V22.795H225.729C225.822 22.9583 225.915 23.1917 226.009 23.495C226.125 23.7983 226.184 24.1133 226.184 24.44C226.184 25.0233 226.044 25.4667 225.764 25.77C225.484 26.05 225.122 26.19 224.679 26.19H218.869ZM220.549 30.705H216.244V18.105C216.43 18.035 216.699 17.965 217.049 17.895C217.422 17.825 217.807 17.79 218.204 17.79C219.02 17.79 219.615 17.9417 219.989 18.245C220.362 18.525 220.549 19.0383 220.549 19.785V30.705Z" fill="#363848"/>
<g clip-path="url(#clip0_1_918)">
<path d="M36.5786 9.03875L11.3777 26.9024C10.4042 27.5926 10.4037 29.0406 11.3777 29.731L36.5786 47.5946C37.722 48.4052 39.3146 47.5871 39.3146 46.1802V10.453C39.3146 9.04981 37.7256 8.22548 36.5786 9.03875Z" fill="#5F4BDB"/>
<path d="M0.731087 16.5852C-0.644052 17.5599 0.0508728 19.7331 1.73349 19.7331H7.17941V12.0142L0.731087 16.5852Z" fill="#5F4BDB"/>
<path d="M54.8952 32.165H42.7812V44.6104L55.8976 35.3129C57.2727 34.3383 56.5778 32.165 54.8952 32.165Z" fill="#3E2F9A"/>
<path d="M13.3825 9.03185C12.2354 8.21869 10.6465 9.04302 10.6465 10.446V23.1638L21.9828 15.1281L13.3825 9.03185Z" fill="#FE8D4D"/>
</g>
<defs>
<clipPath id="clip0_1_918">
<rect width="56.6292" height="56.6292" fill="white"/>
</clipPath>
</defs>
</svg>
